<svg width="66" height="19" viewBox="0 0 66 19" fill="none" xmlns="http://www.w3.org/2000/svg">
<path d="M6.86719 0.644531C8.50781 0.644531 9.82812 1.01953 10.8281 1.76953C11.8359 2.51172 12.3398 3.51562 12.3398 4.78125C12.3398 5.65625 12.0977 6.4375 11.6133 7.125C11.1289 7.80469 10.3477 8.41406 9.26953 8.95312C10.5508 9.64062 11.4688 10.3594 12.0234 11.1094C12.5859 11.8516 12.8672 12.668 12.8672 13.5586C12.8672 14.9648 12.3164 16.0977 11.2148 16.957C10.1133 17.8086 8.66406 18.2344 6.86719 18.2344C4.99219 18.2344 3.51953 17.8359 2.44922 17.0391C1.37891 16.2422 0.84375 15.1133 0.84375 13.6523C0.84375 12.6758 1.10156 11.8086 1.61719 11.0508C2.14062 10.293 2.97656 9.625 4.125 9.04688C3.14844 8.42969 2.44531 7.76953 2.01562 7.06641C1.58594 6.36328 1.37109 5.59375 1.37109 4.75781C1.37109 3.53125 1.87891 2.53906 2.89453 1.78125C3.91016 1.02344 5.23438 0.644531 6.86719 0.644531ZM4.19531 13.4414C4.19531 14.1133 4.42969 14.6367 4.89844 15.0117C5.36719 15.3867 6.00781 15.5742 6.82031 15.5742C7.71875 15.5742 8.39062 15.3828 8.83594 15C9.28125 14.6094 9.50391 14.0977 9.50391 13.4648C9.50391 12.9414 9.28125 12.4531 8.83594 12C8.39844 11.5391 7.68359 11.0508 6.69141 10.5352C5.02734 11.3008 4.19531 12.2695 4.19531 13.4414ZM6.84375 3.29297C6.22656 3.29297 5.72656 3.45313 5.34375 3.77344C4.96875 4.08594 4.78125 4.50781 4.78125 5.03906C4.78125 5.50781 4.92969 5.92969 5.22656 6.30469C5.53125 6.67188 6.07812 7.05078 6.86719 7.44141C7.63281 7.08203 8.16797 6.71484 8.47266 6.33984C8.77734 5.96484 8.92969 5.53125 8.92969 5.03906C8.92969 4.5 8.73438 4.07422 8.34375 3.76172C7.95312 3.44922 7.45312 3.29297 6.84375 3.29297ZM27.5147 9.43359C27.5147 12.4258 27.0225 14.6406 26.0381 16.0781C25.0616 17.5156 23.5538 18.2344 21.5147 18.2344C19.5381 18.2344 18.0459 17.4922 17.0381 16.0078C16.0381 14.5234 15.5381 12.332 15.5381 9.43359C15.5381 6.41016 16.0264 4.18359 17.003 2.75391C17.9795 1.31641 19.4834 0.597656 21.5147 0.597656C23.4913 0.597656 24.9834 1.34766 25.9913 2.84766C27.0069 4.34766 27.5147 6.54297 27.5147 9.43359ZM19.1358 9.43359C19.1358 11.5352 19.3155 13.043 19.6748 13.957C20.042 14.8633 20.6553 15.3164 21.5147 15.3164C22.3584 15.3164 22.9678 14.8555 23.3428 13.9336C23.7178 13.0117 23.9053 11.5117 23.9053 9.43359C23.9053 7.33203 23.7139 5.82422 23.3311 4.91016C22.9561 3.98828 22.3506 3.52734 21.5147 3.52734C20.6631 3.52734 20.0538 3.98828 19.6866 4.91016C19.3194 5.82422 19.1358 7.33203 19.1358 9.43359ZM42.1856 9.43359C42.1856 12.4258 41.6934 14.6406 40.7091 16.0781C39.7325 17.5156 38.2247 18.2344 36.1856 18.2344C34.2091 18.2344 32.7169 17.4922 31.7091 16.0078C30.7091 14.5234 30.2091 12.332 30.2091 9.43359C30.2091 6.41016 30.6973 4.18359 31.6739 2.75391C32.6505 1.31641 34.1544 0.597656 36.1856 0.597656C38.1622 0.597656 39.6544 1.34766 40.6622 2.84766C41.6778 4.34766 42.1856 6.54297 42.1856 9.43359ZM33.8067 9.43359C33.8067 11.5352 33.9864 13.043 34.3458 13.957C34.713 14.8633 35.3263 15.3164 36.1856 15.3164C37.0294 15.3164 37.6388 14.8555 38.0138 13.9336C38.3888 13.0117 38.5763 11.5117 38.5763 9.43359C38.5763 7.33203 38.3848 5.82422 38.002 4.91016C37.627 3.98828 37.0216 3.52734 36.1856 3.52734C35.3341 3.52734 34.7247 3.98828 34.3575 4.91016C33.9903 5.82422 33.8067 7.33203 33.8067 9.43359ZM53.3672 18V15.432H51.4472V13.104H53.3672V11.232H51.4472V8.256H53.3672V0.863999H58.8392C61.0472 0.863999 62.6552 1.312 63.6632 2.208C64.6872 3.104 65.1992 4.336 65.1992 5.904C65.1992 6.832 64.9912 7.704 64.5752 8.52C64.1592 9.336 63.4632 9.992 62.4872 10.488C61.5272 10.984 60.2152 11.232 58.5512 11.232H56.9912V13.104H60.6872V15.432H56.9912V18H53.3672ZM58.1912 8.256C59.2152 8.256 60.0232 8.08 60.6152 7.728C61.2232 7.376 61.5272 6.808 61.5272 6.024C61.5272 4.568 60.5672 3.84 58.6472 3.84H56.9912V8.256H58.1912Z" fill="#333333"/>
</svg>
